<?xml version="1.0" standalone="no"?><!DOCTYPE svg PUBLIC "-//W3C//DTD SVG 1.1//EN" "http://www.w3.org/Graphics/SVG/1.1/DTD/svg11.dtd"><svg t="1513326973621" class="icon" style="" viewBox="0 0 1024 1024" version="1.1" xmlns="http://www.w3.org/2000/svg" p-id="1864" xmlns:xlink="http://www.w3.org/1999/xlink" width="128" height="128"><defs><style type="text/css"></style></defs><path d="M895.5 127 127.5 127c-35.35 0-64 28.65-64 64l0 640c0 35.35 28.65 64 64 64l768 0c35.35 0 64-28.65 64-64L959.5 191C959.5 155.65 930.85 127 895.5 127zM191.5 575l128-128L191.5 319l64-64 192 192L255.5 639 191.5 575zM703.5 639 447.5 639l0-64 256 0L703.5 639z" p-id="1865" fill="#000000"></path></svg>