<svg id="Group_54" data-name="Group 54" xmlns="http://www.w3.org/2000/svg" viewBox="0 0 23 27.66">
  <defs>
    <style>
      .cls-1 {
        fill: #f8f9f9;
      }
    </style>
  </defs>
  <g id="Group_50" data-name="Group 50" transform="translate(13.229 23.902)">
    <path id="Path_22" data-name="Path 22" class="cls-1" d="M8.8,17.7v1.954A10.962,10.962,0,0,0,14.212,17.4l-1.2-1.5A8.789,8.789,0,0,1,8.8,17.7Z" transform="translate(-8.8 -15.9)"/>
  </g>
  <g id="Group_51" data-name="Group 51" transform="translate(19.242 17.137)">
    <path id="Path_23" data-name="Path 23" class="cls-1" d="M14.754,11.55A8.647,8.647,0,0,1,12.8,16.21l1.2,1.5A10.728,10.728,0,0,0,16.558,11.4h-1.8Z" transform="translate(-12.8 -11.4)"/>
  </g>
  <g id="Group_52" data-name="Group 52" transform="translate(18.941 8.869)">
    <path id="Path_24" data-name="Path 24" class="cls-1" d="M16.659,11.913A11.039,11.039,0,0,0,13.953,5.9L12.6,7.1a10.731,10.731,0,0,1,2.1,4.81Z" transform="translate(-12.6 -5.9)"/>
  </g>
  <g id="Group_53" data-name="Group 53">
    <path id="Path_25" data-name="Path 25" class="cls-1" d="M17.588,5.863,10.523,0V4.66A11.5,11.5,0,0,0,0,16.235,11.63,11.63,0,0,0,9.621,27.66V25.706a9.657,9.657,0,0,1,.9-19.092v5.712Z"/>
  </g>
</svg>
