<svg xmlns="http://www.w3.org/2000/svg" viewBox="0 0 25 26.154">
  <defs>
    <style>
      .cls-1 {
        fill: #f8f9f9;
      }
    </style>
  </defs>
  <path id="Path_26" data-name="Path 26" class="cls-1" d="M22.692,21.538,25,16.795l-3.333-2.436c0-.385.128-.769.128-1.154a7.886,7.886,0,0,0-.128-1.667L25,8.462,22.051,4.1,18.077,5.769a7.652,7.652,0,0,0-1.923-1.154L15.385,0H10L9.231,4.231A12.063,12.063,0,0,0,6.41,5.769L2.821,4.615.385,9.359l2.692,2.179a6.242,6.242,0,0,0-.128,1.538,6.242,6.242,0,0,0,.128,1.538L0,17.564l2.821,4.487,3.718-1.538a12.174,12.174,0,0,0,2.179,1.282l.769,4.359,5.256-.128.769-4.1a9.1,9.1,0,0,0,2.821-1.667ZM12.436,17.692a4.615,4.615,0,1,1,4.615-4.615A4.679,4.679,0,0,1,12.436,17.692Z"/>
</svg>
